<svg height="20" width="20" xmlns="http://www.w3.org/2000/svg" xmlns:xlink="http://www.w3.org/1999/xlink" version="1.1" x="0px" y="0px" viewBox="0 0 100 100"><path fill="yellow" d="M91.7,32.6l-18.2-2.3c-0.2-3.5-1.9-6.3-4-6.3c-1.9,0-3.5,2.3-3.9,5.3l-6.5-0.8C57.4,15.1,53.9,6,50,6 c-3.9,0-7.4,9.1-9.2,22.5l-6.5,0.8c-0.4-3.1-2-5.3-3.9-5.3c-2.1,0-3.8,2.8-4,6.3L8.3,32.6C6.4,32.8,5,34.4,5,36.3v6.2 c0,1.9,1.5,3.6,3.4,3.8l31.1,3.1c0,0.2,0,0.4,0,0.5c0,8.5,0.6,16.5,1.6,23.2l-13.3,1.7c-1,0.1-1.7,1-1.7,2v3.3c0,1,0.8,1.9,1.8,2 l15.4,1.5C45.1,90.1,47.4,94,50,94c2.6,0,4.9-3.9,6.8-10.4l15.4-1.5c1-0.1,1.8-1,1.8-2v-3.3c0-1-0.7-1.8-1.7-2l-13.3-1.7 c1-6.7,1.6-14.7,1.6-23.2c0-0.2,0-0.4,0-0.5l31.1-3.1c1.9-0.2,3.4-1.8,3.4-3.8v-6.2C95,34.4,93.6,32.8,91.7,32.6z"></path></svg>